# MagicaVoxel @ Ephtracy

# group
o 

# material
mtllib test.mtl
usemtl palette

# normals
vn -1 0 0
vn 1 0 0
vn 0 0 1
vn 0 0 -1
vn 0 -1 0
vn 0 1 0

# texcoords
vt 0.306641 0.5
vt 0.693359 0.5

# verts
v 0 2 0
v 0 2 -1
v 0 2.9 -0.6
v 0 2.9 -1
v 0 3 0
v 0 3 -0.6
v 0 3 -1
v 1 2 0
v 1 2 -1
v 1 2.3 -0.2
v 1 2.3 -1
v 1 3 0
v 1 3 -0.2
v 1 3 -1
v 0 2 0
v 0 3 0
v 1 2 0
v 1 3 0
v 0 2 -1
v 0 2.9 -1
v 0 3 -1
v 0.4 2.9 -1
v 0.4 3 -1
v 0.5 2.3 -1
v 0.5 3 -1
v 1 2 -1
v 1 2.3 -1
v 1 3 -1
v 0 2 0
v 1 2 0
v 0 2 -1
v 1 2 -1
v 0 3 0
v 1 3 0
v 0.5 3 -0.2
v 1 3 -0.2
v 0.2 3 -0.3
v 0.5 3 -0.3
v 0.2 3 -0.4
v 0.5 3 -0.4
v 0 3 -0.6
v 0.4 3 -0.6
v 0 3 -1
v 0.4 3 -1
v 0.5 3 -1
v 1 3 -1

# faces
f 3/1/1 2/1/1 1/1/1
f 4/1/1 2/1/1 3/1/1
f 5/1/1 3/1/1 1/1/1
f 6/2/1 4/2/1 3/2/1
f 6/1/1 3/1/1 5/1/1
f 7/2/1 4/2/1 6/2/1
f 8/1/2 9/1/2 10/1/2
f 10/1/2 9/1/2 11/1/2
f 8/1/2 10/1/2 12/1/2
f 10/2/2 11/2/2 13/2/2
f 12/1/2 10/1/2 13/1/2
f 13/2/2 11/2/2 14/2/2
f 17/1/3 16/1/3 15/1/3
f 18/1/3 16/1/3 17/1/3
f 19/1/4 20/1/4 22/1/4
f 20/2/4 21/2/4 22/2/4
f 22/2/4 21/2/4 23/2/4
f 19/1/4 22/1/4 24/1/4
f 22/1/4 23/1/4 24/1/4
f 24/1/4 23/1/4 25/1/4
f 19/1/4 24/1/4 26/1/4
f 24/2/4 25/2/4 27/2/4
f 26/1/4 24/1/4 27/1/4
f 27/2/4 25/2/4 28/2/4
f 31/1/5 30/1/5 29/1/5
f 32/1/5 30/1/5 31/1/5
f 33/1/6 34/1/6 35/1/6
f 35/1/6 34/1/6 36/1/6
f 33/1/6 35/1/6 37/1/6
f 35/2/6 36/2/6 38/2/6
f 37/1/6 35/1/6 38/1/6
f 33/1/6 37/1/6 39/1/6
f 37/2/6 38/2/6 39/2/6
f 38/2/6 36/2/6 40/2/6
f 39/2/6 38/2/6 40/2/6
f 33/1/6 39/1/6 41/1/6
f 39/1/6 40/1/6 41/1/6
f 41/1/6 40/1/6 42/1/6
f 41/2/6 42/2/6 43/2/6
f 42/1/6 40/1/6 44/1/6
f 43/2/6 42/2/6 44/2/6
f 40/2/6 36/2/6 45/2/6
f 44/1/6 40/1/6 45/1/6
f 45/2/6 36/2/6 46/2/6
